# xmcd
#
# Track frame offsets: 
#        150
#        13449
#        30871
#        58824
#        77588
#        125043
#        142290
#        174302
#        198424
#        225492
#        246243
#        270136
#
# Disc length: 3806 seconds
#
# Revision: 0
# Processed by: cddbd v1.5.1PL0 Copyright (c) Steve Scherf et al.
# Submitted via: ExactAudioCopy v0.95b2
#
DISCID=a00edc0c
DTITLE=Various Artist - Piano Orgy
DYEAR=1900
DGENRE=Boogie Woogie
TTITLE0=Axel Zwingenberger - The Fives
TTITLE1=Bob Seeley - Mama Take the Lobsters off the Ice, Papa's Coming
TTITLE1=Home with the Crabs
TTITLE2=Mark Brawn - Rocking With Red
TTITLE3=Charlie Booty - Santa Fe Rider
TTITLE4=Mark Brawn - St. Louis Blues
TTITLE5=Axel Zwingenberger -  Lexington Avenue Patrol
TTITLE6=David Maxwell - Down In PJ's Place
TTITLE7=Bob Seeley - Just A Closer Walk With Thee
TTITLE8=David Maxwell - Marie
TTITLE9=Axel Zwingenberger -  Long Lost Love
TTITLE10=Mark Brawn - Little Brother
TTITLE11=Bob Seeley - Death Ray Boogie
EXTD=
EXTT0=
EXTT1=
EXTT2=
EXTT3=
EXTT4=
EXTT5=
EXTT6=
EXTT7=
EXTT8=
EXTT9=
EXTT10=
EXTT11=
PLAYORDER=
